
<svg xmlns="http://www.w3.org/2000/svg" viewBox="0 0 100 100" fill="#ffffff"><rect x="40.8" y="47.3" width="17.4" height="2.8"/><rect x="40.8" y="60.2" width="9.4" height="2.8"/><rect x="40.8" y="53.6" width="17.4" height="2.8"/><path d="M55.6,37.3c0,0.8,0.6,1.4,1.4,1.4h4.3L55.6,33V37.3z"/><path d="M87.7,23.4l-34.6-20c-2.2-1.3-5-1.3-7.2,0l-34.6,20c-2.2,1.3-3.6,3.7-3.6,6.2v40c0,2.6,1.4,5,3.6,6.2l34.6,20  c1.1,0.6,2.3,1,3.6,1s2.5-0.3,3.6-1l34.6-20c2.2-1.3,3.6-3.7,3.6-6.2v-40C91.3,27.1,90,24.7,87.7,23.4z M66.9,65.7  c0,2.8-2.3,5.1-5.1,5.1H37.1c-2.8,0-5.1-2.3-5.1-5.1V32.2c0-2.8,2.3-5.1,5.1-5.1l17.3,0l0.6,0.2c0.2,0.1,0.3,0.2,0.4,0.3l10.9,11.1  c0.2,0.2,0.3,0.4,0.4,0.7l0,0.2l0.1,0.5V65.7z"/></svg>